<mxfile host="app.diagrams.net" modified="2024-03-17T22:17:48.902Z" agent="Mozilla/5.0 (Windows NT 10.0; Win64; x64) AppleWebKit/537.36 (KHTML, like Gecko) Chrome/122.0.0.0 Safari/537.36" etag="JCRHz09qWW5v08aJXy3I" version="23.0.2" type="github">
  <diagram name="Page-1" id="saoyoijAeDd4yDNDcfQc">
    <mxGraphModel dx="1644" dy="454" grid="1" gridSize="10" guides="1" tooltips="1" connect="1" arrows="1" fold="1" page="1" pageScale="1" pageWidth="850" pageHeight="1100" math="0" shadow="0">
      <root>
        <mxCell id="0" />
        <mxCell id="1" parent="0" />
        <mxCell id="Yz-v0TC8eiI26obfN1uH-1" value="" style="swimlane;startSize=0;" vertex="1" parent="1">
          <mxGeometry x="400" y="370" width="370" height="180" as="geometry" />
        </mxCell>
        <mxCell id="Yz-v0TC8eiI26obfN1uH-39" value="" style="edgeStyle=orthogonalEdgeStyle;rounded=0;orthogonalLoop=1;jettySize=auto;html=1;" edge="1" parent="Yz-v0TC8eiI26obfN1uH-1" source="Yz-v0TC8eiI26obfN1uH-3" target="Yz-v0TC8eiI26obfN1uH-5">
          <mxGeometry relative="1" as="geometry" />
        </mxCell>
        <mxCell id="Yz-v0TC8eiI26obfN1uH-3" value="" style="sketch=0;aspect=fixed;pointerEvents=1;shadow=0;dashed=0;html=1;strokeColor=none;labelPosition=center;verticalLabelPosition=bottom;verticalAlign=top;align=center;fillColor=#00188D;shape=mxgraph.mscae.enterprise.web_server" vertex="1" parent="Yz-v0TC8eiI26obfN1uH-1">
          <mxGeometry x="60" y="30" width="38" height="50" as="geometry" />
        </mxCell>
        <mxCell id="Yz-v0TC8eiI26obfN1uH-5" value="" style="sketch=0;aspect=fixed;pointerEvents=1;shadow=0;dashed=0;html=1;strokeColor=none;labelPosition=center;verticalLabelPosition=bottom;verticalAlign=top;align=center;fillColor=#00188D;shape=mxgraph.mscae.enterprise.application_server" vertex="1" parent="Yz-v0TC8eiI26obfN1uH-1">
          <mxGeometry x="180" y="30" width="43" height="50" as="geometry" />
        </mxCell>
        <mxCell id="Yz-v0TC8eiI26obfN1uH-7" value="" style="image;sketch=0;aspect=fixed;html=1;points=[];align=center;fontSize=12;image=img/lib/mscae/dep/SQL_Server_Stretch_DB.svg;" vertex="1" parent="Yz-v0TC8eiI26obfN1uH-1">
          <mxGeometry x="280" y="40" width="50" height="50" as="geometry" />
        </mxCell>
        <mxCell id="Yz-v0TC8eiI26obfN1uH-18" value="web server&lt;br&gt;static content" style="rounded=0;whiteSpace=wrap;html=1;" vertex="1" parent="Yz-v0TC8eiI26obfN1uH-1">
          <mxGeometry x="40" y="110" width="90" height="40" as="geometry" />
        </mxCell>
        <mxCell id="Yz-v0TC8eiI26obfN1uH-19" value="application server&lt;br&gt;dynamic content" style="rounded=0;whiteSpace=wrap;html=1;" vertex="1" parent="Yz-v0TC8eiI26obfN1uH-1">
          <mxGeometry x="160" y="110" width="98.5" height="40" as="geometry" />
        </mxCell>
        <mxCell id="Yz-v0TC8eiI26obfN1uH-40" style="edgeStyle=orthogonalEdgeStyle;rounded=0;orthogonalLoop=1;jettySize=auto;html=1;entryX=1.211;entryY=0.488;entryDx=0;entryDy=0;entryPerimeter=0;" edge="1" parent="Yz-v0TC8eiI26obfN1uH-1" source="Yz-v0TC8eiI26obfN1uH-5" target="Yz-v0TC8eiI26obfN1uH-3">
          <mxGeometry relative="1" as="geometry" />
        </mxCell>
        <mxCell id="Yz-v0TC8eiI26obfN1uH-41" style="edgeStyle=orthogonalEdgeStyle;rounded=0;orthogonalLoop=1;jettySize=auto;html=1;entryX=0.032;entryY=0.584;entryDx=0;entryDy=0;entryPerimeter=0;" edge="1" parent="Yz-v0TC8eiI26obfN1uH-1" source="Yz-v0TC8eiI26obfN1uH-5" target="Yz-v0TC8eiI26obfN1uH-7">
          <mxGeometry relative="1" as="geometry">
            <Array as="points">
              <mxPoint x="240" y="55" />
              <mxPoint x="240" y="69" />
            </Array>
          </mxGeometry>
        </mxCell>
        <mxCell id="Yz-v0TC8eiI26obfN1uH-42" style="edgeStyle=orthogonalEdgeStyle;rounded=0;orthogonalLoop=1;jettySize=auto;html=1;entryX=0.986;entryY=0.44;entryDx=0;entryDy=0;entryPerimeter=0;" edge="1" parent="Yz-v0TC8eiI26obfN1uH-1" source="Yz-v0TC8eiI26obfN1uH-7" target="Yz-v0TC8eiI26obfN1uH-5">
          <mxGeometry relative="1" as="geometry" />
        </mxCell>
        <mxCell id="Yz-v0TC8eiI26obfN1uH-2" value="" style="swimlane;startSize=0;" vertex="1" parent="1">
          <mxGeometry x="390" y="40" width="370" height="180" as="geometry" />
        </mxCell>
        <mxCell id="Yz-v0TC8eiI26obfN1uH-4" value="" style="sketch=0;aspect=fixed;pointerEvents=1;shadow=0;dashed=0;html=1;strokeColor=none;labelPosition=center;verticalLabelPosition=bottom;verticalAlign=top;align=center;fillColor=#00188D;shape=mxgraph.mscae.enterprise.web_server" vertex="1" parent="Yz-v0TC8eiI26obfN1uH-2">
          <mxGeometry x="50" y="20" width="38" height="50" as="geometry" />
        </mxCell>
        <mxCell id="Yz-v0TC8eiI26obfN1uH-36" style="edgeStyle=orthogonalEdgeStyle;rounded=0;orthogonalLoop=1;jettySize=auto;html=1;" edge="1" parent="Yz-v0TC8eiI26obfN1uH-2" source="Yz-v0TC8eiI26obfN1uH-6">
          <mxGeometry relative="1" as="geometry">
            <mxPoint x="90" y="45" as="targetPoint" />
          </mxGeometry>
        </mxCell>
        <mxCell id="Yz-v0TC8eiI26obfN1uH-37" style="edgeStyle=orthogonalEdgeStyle;rounded=0;orthogonalLoop=1;jettySize=auto;html=1;" edge="1" parent="Yz-v0TC8eiI26obfN1uH-2" source="Yz-v0TC8eiI26obfN1uH-6" target="Yz-v0TC8eiI26obfN1uH-8">
          <mxGeometry relative="1" as="geometry" />
        </mxCell>
        <mxCell id="Yz-v0TC8eiI26obfN1uH-6" value="" style="sketch=0;aspect=fixed;pointerEvents=1;shadow=0;dashed=0;html=1;strokeColor=none;labelPosition=center;verticalLabelPosition=bottom;verticalAlign=top;align=center;fillColor=#00188D;shape=mxgraph.mscae.enterprise.application_server" vertex="1" parent="Yz-v0TC8eiI26obfN1uH-2">
          <mxGeometry x="180" y="20" width="43" height="50" as="geometry" />
        </mxCell>
        <mxCell id="Yz-v0TC8eiI26obfN1uH-8" value="" style="image;sketch=0;aspect=fixed;html=1;points=[];align=center;fontSize=12;image=img/lib/mscae/dep/SQL_Server_Stretch_DB.svg;" vertex="1" parent="Yz-v0TC8eiI26obfN1uH-2">
          <mxGeometry x="290" y="50" width="50" height="50" as="geometry" />
        </mxCell>
        <mxCell id="Yz-v0TC8eiI26obfN1uH-10" value="" style="image;html=1;image=img/lib/clip_art/networking/Firewall-page1_128x128.png" vertex="1" parent="Yz-v0TC8eiI26obfN1uH-2">
          <mxGeometry x="-45" y="35" width="80" height="80" as="geometry" />
        </mxCell>
        <mxCell id="Yz-v0TC8eiI26obfN1uH-13" value="web server&lt;br&gt;static content" style="rounded=0;whiteSpace=wrap;html=1;" vertex="1" parent="Yz-v0TC8eiI26obfN1uH-2">
          <mxGeometry x="24" y="90" width="90" height="40" as="geometry" />
        </mxCell>
        <mxCell id="Yz-v0TC8eiI26obfN1uH-17" value="application server&lt;br&gt;dynamic content" style="rounded=0;whiteSpace=wrap;html=1;" vertex="1" parent="Yz-v0TC8eiI26obfN1uH-2">
          <mxGeometry x="152.25" y="90" width="98.5" height="40" as="geometry" />
        </mxCell>
        <mxCell id="Yz-v0TC8eiI26obfN1uH-35" style="edgeStyle=orthogonalEdgeStyle;rounded=0;orthogonalLoop=1;jettySize=auto;html=1;entryX=0;entryY=0.5;entryDx=0;entryDy=0;entryPerimeter=0;" edge="1" parent="Yz-v0TC8eiI26obfN1uH-2" source="Yz-v0TC8eiI26obfN1uH-4" target="Yz-v0TC8eiI26obfN1uH-6">
          <mxGeometry relative="1" as="geometry" />
        </mxCell>
        <mxCell id="Yz-v0TC8eiI26obfN1uH-38" style="edgeStyle=orthogonalEdgeStyle;rounded=0;orthogonalLoop=1;jettySize=auto;html=1;entryX=1.209;entryY=0.48;entryDx=0;entryDy=0;entryPerimeter=0;" edge="1" parent="Yz-v0TC8eiI26obfN1uH-2" source="Yz-v0TC8eiI26obfN1uH-8" target="Yz-v0TC8eiI26obfN1uH-6">
          <mxGeometry relative="1" as="geometry" />
        </mxCell>
        <mxCell id="Yz-v0TC8eiI26obfN1uH-11" value="" style="image;html=1;image=img/lib/clip_art/networking/Firewall-page1_128x128.png" vertex="1" parent="1">
          <mxGeometry x="350" y="420" width="80" height="80" as="geometry" />
        </mxCell>
        <mxCell id="Yz-v0TC8eiI26obfN1uH-43" style="edgeStyle=orthogonalEdgeStyle;rounded=0;orthogonalLoop=1;jettySize=auto;html=1;entryX=0;entryY=0.5;entryDx=0;entryDy=0;" edge="1" parent="1" source="Yz-v0TC8eiI26obfN1uH-20" target="Yz-v0TC8eiI26obfN1uH-10">
          <mxGeometry relative="1" as="geometry" />
        </mxCell>
        <mxCell id="Yz-v0TC8eiI26obfN1uH-44" style="edgeStyle=orthogonalEdgeStyle;rounded=0;orthogonalLoop=1;jettySize=auto;html=1;entryX=0;entryY=0.75;entryDx=0;entryDy=0;" edge="1" parent="1" source="Yz-v0TC8eiI26obfN1uH-20" target="Yz-v0TC8eiI26obfN1uH-11">
          <mxGeometry relative="1" as="geometry" />
        </mxCell>
        <mxCell id="Yz-v0TC8eiI26obfN1uH-20" value="" style="outlineConnect=0;dashed=0;verticalLabelPosition=bottom;verticalAlign=top;align=center;html=1;shape=mxgraph.aws3.classic_load_balancer;fillColor=#F58534;gradientColor=none;" vertex="1" parent="1">
          <mxGeometry x="170" y="240" width="130" height="120" as="geometry" />
        </mxCell>
        <mxCell id="Yz-v0TC8eiI26obfN1uH-33" style="edgeStyle=orthogonalEdgeStyle;rounded=0;orthogonalLoop=1;jettySize=auto;html=1;entryX=0;entryY=0.75;entryDx=0;entryDy=0;" edge="1" parent="1" source="Yz-v0TC8eiI26obfN1uH-21" target="Yz-v0TC8eiI26obfN1uH-32">
          <mxGeometry relative="1" as="geometry" />
        </mxCell>
        <mxCell id="Yz-v0TC8eiI26obfN1uH-21" value="" style="image;points=[];aspect=fixed;html=1;align=center;shadow=0;dashed=0;image=img/lib/allied_telesis/computer_and_terminals/Personal_Computer_with_Server.svg;" vertex="1" parent="1">
          <mxGeometry x="-140" y="100" width="130" height="130" as="geometry" />
        </mxCell>
        <mxCell id="Yz-v0TC8eiI26obfN1uH-30" style="edgeStyle=orthogonalEdgeStyle;rounded=0;orthogonalLoop=1;jettySize=auto;html=1;" edge="1" parent="1" source="Yz-v0TC8eiI26obfN1uH-22" target="Yz-v0TC8eiI26obfN1uH-21">
          <mxGeometry relative="1" as="geometry" />
        </mxCell>
        <mxCell id="Yz-v0TC8eiI26obfN1uH-22" value="" style="fillColor=#28A8E0;verticalLabelPosition=bottom;sketch=0;html=1;strokeColor=#ffffff;verticalAlign=top;align=center;points=[[0.145,0.145,0],[0.5,0,0],[0.855,0.145,0],[1,0.5,0],[0.855,0.855,0],[0.5,1,0],[0.145,0.855,0],[0,0.5,0]];pointerEvents=1;shape=mxgraph.cisco_safe.compositeIcon;bgIcon=ellipse;resIcon=mxgraph.cisco_safe.capability.dns;" vertex="1" parent="1">
          <mxGeometry x="-96.5" y="350" width="43" height="43" as="geometry" />
        </mxCell>
        <mxCell id="Yz-v0TC8eiI26obfN1uH-23" value="www.google.com" style="rounded=0;whiteSpace=wrap;html=1;" vertex="1" parent="1">
          <mxGeometry x="-170" y="420" width="190" height="40" as="geometry" />
        </mxCell>
        <mxCell id="Yz-v0TC8eiI26obfN1uH-25" value="HTTP Request&lt;br&gt;to connect to web page" style="rounded=0;whiteSpace=wrap;html=1;" vertex="1" parent="1">
          <mxGeometry x="-10" y="120" width="170" height="40" as="geometry" />
        </mxCell>
        <mxCell id="Yz-v0TC8eiI26obfN1uH-26" style="edgeStyle=orthogonalEdgeStyle;rounded=0;orthogonalLoop=1;jettySize=auto;html=1;" edge="1" parent="1" source="Yz-v0TC8eiI26obfN1uH-23">
          <mxGeometry relative="1" as="geometry">
            <mxPoint x="-75" y="393" as="targetPoint" />
          </mxGeometry>
        </mxCell>
        <mxCell id="Yz-v0TC8eiI26obfN1uH-31" value="Load Balancer&amp;nbsp;" style="rounded=0;whiteSpace=wrap;html=1;" vertex="1" parent="1">
          <mxGeometry x="180" y="370" width="110" height="30" as="geometry" />
        </mxCell>
        <mxCell id="Yz-v0TC8eiI26obfN1uH-32" value="" style="image;html=1;image=img/lib/clip_art/networking/Firewall_128x128.png" vertex="1" parent="1">
          <mxGeometry x="140" y="260" width="80" height="80" as="geometry" />
        </mxCell>
        <mxCell id="Yz-v0TC8eiI26obfN1uH-45" style="edgeStyle=orthogonalEdgeStyle;rounded=0;orthogonalLoop=1;jettySize=auto;html=1;entryX=0.563;entryY=0.022;entryDx=0;entryDy=0;entryPerimeter=0;" edge="1" parent="1" source="Yz-v0TC8eiI26obfN1uH-4" target="Yz-v0TC8eiI26obfN1uH-21">
          <mxGeometry relative="1" as="geometry" />
        </mxCell>
        <mxCell id="Yz-v0TC8eiI26obfN1uH-46" value="HTTP Response&lt;br&gt;connecting to web page" style="rounded=0;whiteSpace=wrap;html=1;" vertex="1" parent="1">
          <mxGeometry x="20" y="60" width="140" height="30" as="geometry" />
        </mxCell>
      </root>
    </mxGraphModel>
  </diagram>
</mxfile>
